PathFileType	4	(X/Y/Z)	C:/Users/opensim2020/Desktop/walking_exp_matlab/subject01_walking04_straight_01.trc																																																																																																																															
DataRate	CameraRate	NumFrames	NumMarkers	Units	OrigDataRate	OrigDataStartFrame	OrigNumFrames																																																																																																																											
100	100	4	43	mm	100	1001	216																																																																																																																											
Frame#	Time	LFHD			RFHD			LBHD			RBHD			C7			T10			CLAV			STRN			RBAK			LSHO			LUPA			LELB			LFRM			LWRA			LWRB			LFIN			RSHO			RUPA			RELB			RFRM			RWRA			RWRB			RFIN			LASI			RASI			LPSI			RPSI			LTHI			LKNE			LTIB			LANK			LHEE			LTOE			RTHI			RKNE			RTIB			RANK			RHEE			RTOE			*39			*40			*41			*42		
		X1	Y1	Z1	X2	Y2	Z2	X3	Y3	Z3	X4	Y4	Z4	X5	Y5	Z5	X6	Y6	Z6	X7	Y7	Z7	X8	Y8	Z8	X9	Y9	Z9	X10	Y10	Z10	X11	Y11	Z11	X12	Y12	Z12	X13	Y13	Z13	X14	Y14	Z14	X15	Y15	Z15	X16	Y16	Z16	X17	Y17	Z17	X18	Y18	Z18	X19	Y19	Z19	X20	Y20	Z20	X21	Y21	Z21	X22	Y22	Z22	X23	Y23	Z23	X24	Y24	Z24	X25	Y25	Z25	X26	Y26	Z26	X27	Y27	Z27	X28	Y28	Z28	X29	Y29	Z29	X30	Y30	Z30	X31	Y31	Z31	X32	Y32	Z32	X33	Y33	Z33	X34	Y34	Z34	X35	Y35	Z35	X36	Y36	Z36	X37	Y37	Z37	X38	Y38	Z38	X39	Y39	Z39	X40	Y40	Z40	X41	Y41	Z41	X42	Y42	Z42	X43	Y43	Z43
																																																																																																																																		
190	1.89	838.48291	1673.51953	-1033.20862	849.23297	1675.19128	-918.31787	718.8382	1635.66577	-1030.40662	727.01715	1636.63623	-908.59515	667.24091	1439.87598	-987.61237	632.89154	1144.94263	-981.24994	809.90381	1371.72656	-991.216	855.53973	1218.53406	-999.08203	616.82202	1243.26526	-908.00067	744.98456	1401.26685	-1151.34509	699.34753	1219.30762	-1234.1554	673.27209	1069.91089	-1231.28662	705.68127	959.86755	-1256.58252	781.46283	841.82703	-1241.2998	724.95599	838.776	-1261.79041	768.98773	765.4256	-1269.76331	751.23206	1398.75989	-837.39233	704.60522	1198.36499	-732.50104	715.53705	1072.77222	-723.70288	768.69281	963.68347	-691.63293	875.58923	871.17017	-708.4035	832.8252	861.01764	-671.06195	889.38263	797.7583	-669.15533	809.62286	942.15009	-1093.47632	810.03198	937.46368	-875.98315	623.53778	950.25464	-1045.19324	624.4646	954.2467	-900.65302	873.88538	633.6391	-1171.698	900.685	501.53915	-1158.71094	832.94427	325.00354	-1169.43237	786.83221	109.81577	-1123.02808	749.23145	80.53499	-1062.63965	918.70612	55.87003	-1151.0968	730.4881	604.59515	-839.20648	722.56177	446.52371	-872.08832	653.49976	283.7186	-872.26031	609.58881	83.85378	-934.3075	557.39386	52.1238	-986.67737	748.22437	39.41322	-939.31488	839.35114	1710.0863	-940.36658	1973.05261	1023.41687	-3101.78979	2012.50159	1022.06195	-3140.6311	NaN	NaN	NaN
191	1.9	848.612	1672.68958	-1033.39087	859.26678	1674.52783	-918.38275	728.89844	1635.02478	-1030.6333	736.95026	1636.12036	-908.91241	677.02753	1439.32788	-987.66486	642.30804	1144.38574	-981.44666	819.65076	1371.03198	-991.09363	865.11713	1217.75708	-998.70032	626.31818	1242.8385	-907.97321	754.87164	1400.44568	-1151.35168	708.49841	1218.41125	-1233.80261	681.51941	1069.3645	-1230.56909	712.17218	958.88483	-1255.58264	785.95343	839.77692	-1240.00037	729.23224	837.44812	-1260.66724	772.06842	763.18512	-1268.35229	760.96503	1398.3634	-837.21014	714.63641	1197.95178	-732.2276	725.99152	1072.40088	-723.0365	781.13562	964.10175	-691.05811	889.4342	873.4856	-707.85504	846.50342	862.26935	-670.59967	904.43573	800.27173	-668.63092	819.15546	941.46661	-1093.4906	818.38354	936.35699	-875.78705	632.91431	949.62213	-1045.63281	633.35162	953.92102	-901.20728	883.40948	632.83289	-1171.18347	910.57043	500.74509	-1157.52148	851.12024	321.36298	-1169.44836	817.88745	102.69238	-1125.13074	780.91589	72.02106	-1065.2052	953.28241	56.30405	-1150.32751	736.14044	604.58643	-839.10205	726.13666	446.74756	-871.96313	655.40747	284.15985	-872.30609	610.14746	84.97808	-934.41632	557.82581	52.94505	-986.22913	748.13776	39.24113	-939.33649	849.41669	1709.38904	-940.5528	1973.22314	1023.28723	-3101.82275	2012.57361	1022.00311	-3140.55957	NaN	NaN	NaN
192	1.91	858.76471	1671.82507	-1033.58533	869.32861	1673.84033	-918.65967	739.0116	1634.36243	-1030.99536	746.95416	1635.53613	-909.14484	686.86865	1438.71497	-987.9588	651.81226	1143.87	-981.77155	829.44781	1370.25549	-990.97174	874.77332	1216.96387	-998.36176	635.80743	1242.36304	-908.00311	764.862	1399.60571	-1151.39819	717.77954	1217.50659	-1233.60669	689.96942	1068.86792	-1229.92102	718.87988	957.90332	-1254.68079	790.26825	837.30505	-1238.60107	733.79236	836.25568	-1259.74512	774.92004	761.06927	-1266.57739	770.57239	1397.81982	-837.41315	724.67389	1197.54919	-731.98798	736.53644	1071.96045	-722.41827	793.2016	964.46362	-690.54248	903.05273	875.73145	-707.48785	860.2807	863.7193	-670.21417	919.31787	802.72986	-668.26056	828.83051	940.68488	-1093.5769	827.25513	935.55566	-875.75421	642.35724	948.89948	-1046.07153	642.37128	953.55951	-901.77686	892.26678	631.62091	-1170.71301	919.65613	499.38187	-1156.52344	868.65527	318.44443	-1169.75342	849.08374	96.88467	-1126.96265	812.49988	64.48814	-1067.94885	987.45447	57.42558	-1149.29333	741.58447	604.45496	-839.06061	730.20007	446.59518	-871.69293	657.57593	285.00412	-872.16235	610.63293	85.72816	-934.32794	557.94299	54.3535	-986.62018	748.26526	39.21538	-939.30627	859.53125	1708.6344	-940.80872	1973.05444	1023.27039	-3101.94824	2012.59875	1022.10889	-3140.61426	NaN	NaN	NaN
193	1.92	868.94403	1670.91138	-1033.87708	879.30804	1672.9906	-918.87689	749.12903	1633.55115	-1031.27039	757.02026	1634.81714	-909.49286	696.79425	1438.08667	-987.97296	661.36523	1143.2572	-982.18219	839.20856	1369.45435	-990.9801	884.34003	1216.0647	-998.03723	645.37317	1241.79712	-908.16003	774.93213	1398.72217	-1151.49524	727.15637	1216.59314	-1233.52368	698.59869	1068.18738	-1229.49426	725.85187	956.90271	-1253.89966	795.01086	835.04236	-1237.15088	738.59357	834.93878	-1258.40918	778.54364	759.07684	-1265.09509	780.14807	1397.18445	-837.61627	734.65845	1197.04297	-731.84851	746.90125	1071.52991	-721.94128	805.15631	964.7547	-690.1629	916.2348	877.61774	-707.30542	873.98938	865.1311	-670.03534	933.76154	805.12207	-667.91467	838.67902	939.9447	-1093.74084	836.05743	934.76031	-875.70459	652.03436	948.16217	-1046.6405	651.49445	953.21277	-902.37622	900.54388	629.93604	-1170.33789	928.26556	497.94125	-1155.76563	885.94946	315.32135	-1169.75598	879.99884	92.3311	-1128.86169	843.76501	58.49832	-1070.9458	1021.01733	59.41824	-1148.07788	747.09283	604.54749	-838.74072	733.7757	446.50003	-871.53784	659.64185	285.6778	-872.22974	611.21063	86.72985	-934.24933	558.76141	55.43826	-986.36407	748.77472	39.43631	-939.16913	869.86536	1708.02551	-941.1059	1973.14307	1023.38983	-3101.76782	2012.61572	1022.15051	-3140.53052	NaN	NaN	NaN
